# Object Export From Tinkercad Server 2015

mtllib obj.mtl

o obj_0
v -1 		2.66 		12.75
v -1 		3 		12.75
v -1 		2.66 		0
v -1 		3 		0
v -21 		3 		12.75
v -21 		2.66 		12.75
v -21 		3 		0
v -21 		2.66 		0
# 8 vertices

g group_0_-1028593425

usemtl color_-1028593425
s 0

f 1 	3 	2
f 3 	4 	2
f 5 	7 	6
f 7 	8 	6
f 5 	6 	2
f 6 	1 	2
f 8 	7 	3
f 7 	4 	3
f 6 	8 	1
f 8 	3 	1
f 2 	4 	5
f 4 	7 	5
# 12 faces

 #end of obj_0

o obj_1
v 39 		3 		12.75
v 39 		3.34 		12.75
v 39 		3 		0
v 39 		3.34 		0
v 19 		3.34 		12.75
v 19 		3 		12.75
v 19 		3.34 		0
v 19 		3 		0
# 8 vertices

g group_1_-1028593425

usemtl color_-1028593425
s 0

f 9 	11 	10
f 11 	12 	10
f 13 	15 	14
f 15 	16 	14
f 13 	14 	10
f 14 	9 	10
f 16 	15 	11
f 15 	12 	11
f 14 	16 	9
f 16 	11 	9
f 10 	12 	13
f 12 	15 	13
# 12 faces

 #end of obj_1

